<?xml version="1.0" encoding="UTF-8" standalone="no"?>
<!DOCTYPE svg PUBLIC "-//W3C//DTD SVG 1.1//EN" "http://www.w3.org/Graphics/SVG/1.1/DTD/svg11.dtd">
<svg width="100%" height="100%" viewBox="0 0 18 18" version="1.1" xmlns="http://www.w3.org/2000/svg" xmlns:xlink="http://www.w3.org/1999/xlink" xml:space="preserve" xmlns:serif="http://www.serif.com/" style="fill-rule:evenodd;clip-rule:evenodd;stroke-linejoin:round;stroke-miterlimit:2;">
    <g id="Layer-1" transform="matrix(1,0,0,1,-110.375,-191.182)">
        <g id="text4136">
        </g>
        <g transform="matrix(1.125,0,0,1.125,109.25,190.057)">
            <path d="M17,6.178L17,11.822C17,14.68 14.68,17 11.822,17L6.178,17C3.32,17 1,14.68 1,11.822L1,6.178C1,3.32 3.32,1 6.178,1L11.822,1C14.68,1 17,3.32 17,6.178ZM5.832,4.886C5.785,4.886 5.731,4.904 5.67,4.938C5.608,4.973 5.577,5.04 5.577,5.14C5.577,5.233 5.61,5.316 5.676,5.389C5.741,5.462 5.82,5.518 5.912,5.556C5.527,5.633 5.167,5.747 4.832,5.897C4.497,6.048 4.195,6.223 3.925,6.423C3.863,6.446 3.796,6.465 3.723,6.481C3.649,6.496 3.578,6.504 3.509,6.504C3.324,6.504 3.189,6.462 3.104,6.377C3.205,6.3 3.255,6.184 3.255,6.03C3.255,5.922 3.232,5.83 3.185,5.753C3.131,5.645 3.072,5.566 3.006,5.516C2.941,5.466 2.877,5.422 2.816,5.383C2.762,5.345 2.71,5.291 2.66,5.221C2.609,5.152 2.584,5.083 2.584,5.013C2.584,4.944 2.611,4.886 2.665,4.84C2.658,4.832 2.636,4.827 2.602,4.823C2.567,4.819 2.523,4.836 2.469,4.875C2.392,4.929 2.332,5.017 2.29,5.14C2.247,5.264 2.226,5.395 2.226,5.533C2.226,5.626 2.236,5.718 2.255,5.811C2.274,5.903 2.299,5.98 2.33,6.042C2.392,6.173 2.475,6.273 2.579,6.342C2.683,6.412 2.781,6.446 2.873,6.446C2.935,6.446 2.981,6.439 3.012,6.423C3.135,6.546 3.285,6.616 3.463,6.631L3.578,6.631C3.617,6.631 3.651,6.627 3.682,6.62C3.513,6.766 3.357,6.92 3.214,7.082C3.072,7.244 2.947,7.413 2.839,7.59C2.646,7.891 2.504,8.197 2.411,8.509C2.319,8.821 2.272,9.123 2.272,9.416C2.272,9.67 2.307,9.909 2.376,10.132C2.392,10.209 2.386,10.29 2.359,10.375C2.332,10.46 2.299,10.525 2.261,10.572C2.168,10.703 2.072,10.768 1.972,10.768C1.941,10.768 1.914,10.756 1.891,10.733C1.86,10.703 1.837,10.703 1.822,10.733C1.806,10.764 1.814,10.807 1.845,10.86C1.907,10.968 1.991,11.022 2.099,11.022C2.253,11.022 2.369,10.93 2.446,10.745C2.477,10.683 2.492,10.606 2.492,10.514L2.492,10.444C2.654,10.76 2.885,10.989 3.185,11.132C3.486,11.275 3.802,11.346 4.133,11.346C4.634,11.346 5.077,11.223 5.462,10.976L5.479,10.976C5.483,10.976 5.489,10.972 5.496,10.964C5.535,10.957 5.572,10.951 5.606,10.947C5.641,10.943 5.674,10.941 5.704,10.941C5.781,10.941 5.851,10.951 5.912,10.97C5.974,10.989 6.009,11.026 6.016,11.08C6.024,11.142 6.051,11.172 6.097,11.172C6.136,11.172 6.159,11.157 6.167,11.126C6.182,11.08 6.19,11.038 6.19,10.999C6.19,10.937 6.169,10.876 6.126,10.814C6.084,10.753 6.005,10.714 5.889,10.699L5.832,10.699C5.808,10.699 5.785,10.703 5.762,10.71C5.801,10.656 5.835,10.595 5.866,10.525C5.912,10.417 5.936,10.317 5.936,10.225L5.936,10.121C5.936,10.09 5.928,10.059 5.912,10.028C6.013,9.944 6.063,9.82 6.063,9.659C6.063,9.535 6.028,9.412 5.959,9.289C5.905,9.189 5.826,9.087 5.722,8.983C5.618,8.879 5.5,8.804 5.369,8.757C5.339,8.742 5.3,8.728 5.254,8.717C5.208,8.705 5.157,8.7 5.104,8.7C5.042,8.7 4.98,8.713 4.919,8.74C4.857,8.767 4.815,8.815 4.792,8.884C4.899,8.854 4.984,8.892 5.046,9C5.107,9.108 5.138,9.208 5.138,9.3C5.138,9.362 5.14,9.437 5.144,9.526C5.148,9.614 5.177,9.713 5.231,9.82C5.269,9.905 5.331,9.976 5.416,10.034C5.5,10.092 5.585,10.121 5.67,10.121C5.731,10.121 5.785,10.109 5.832,10.086C5.855,10.233 5.822,10.371 5.733,10.502C5.645,10.633 5.558,10.729 5.473,10.791C5.088,11.038 4.661,11.161 4.191,11.161C3.906,11.161 3.632,11.099 3.37,10.976C3.108,10.853 2.908,10.656 2.769,10.387C2.646,10.14 2.584,9.836 2.584,9.474C2.584,9.381 2.59,9.285 2.602,9.185C2.613,9.085 2.627,8.985 2.642,8.884C2.673,8.969 2.712,9.052 2.758,9.133C2.804,9.214 2.862,9.277 2.931,9.324C2.916,9.339 2.9,9.37 2.885,9.416C2.854,9.555 2.908,9.697 3.047,9.844C3.185,9.99 3.374,10.063 3.613,10.063C3.775,10.063 3.938,10.034 4.104,9.976C4.27,9.919 4.379,9.836 4.433,9.728C4.456,9.682 4.468,9.647 4.468,9.624C4.468,9.593 4.456,9.566 4.433,9.543C4.395,9.605 4.333,9.636 4.248,9.636C4.187,9.636 4.123,9.618 4.058,9.584C3.992,9.549 3.94,9.512 3.902,9.474C3.863,9.42 3.815,9.366 3.757,9.312C3.7,9.258 3.617,9.212 3.509,9.173C3.455,9.15 3.389,9.139 3.312,9.139C3.189,9.139 3.081,9.173 2.989,9.243C2.904,9.181 2.843,9.098 2.804,8.994C2.765,8.89 2.746,8.78 2.746,8.665C2.746,8.611 2.75,8.557 2.758,8.503C2.765,8.449 2.777,8.399 2.792,8.353C2.831,8.23 2.881,8.108 2.943,7.989C3.004,7.869 3.07,7.752 3.139,7.636C3.347,7.305 3.609,6.995 3.925,6.706C4.241,6.417 4.611,6.188 5.034,6.019C5.003,6.049 4.984,6.073 4.976,6.088C4.915,6.188 4.884,6.288 4.884,6.388L4.884,6.435C4.807,6.442 4.734,6.491 4.664,6.579C4.595,6.668 4.56,6.777 4.56,6.908C4.56,7.001 4.584,7.105 4.63,7.22C4.676,7.336 4.738,7.436 4.815,7.521C4.892,7.606 4.973,7.648 5.057,7.648C5.111,7.648 5.146,7.633 5.161,7.602C5.115,7.586 5.084,7.561 5.069,7.527C5.053,7.492 5.046,7.455 5.046,7.417C5.046,7.324 5.065,7.247 5.104,7.186L5.184,7.024C5.215,6.962 5.231,6.881 5.231,6.781C5.231,6.697 5.206,6.62 5.156,6.55C5.105,6.481 5.038,6.442 4.953,6.435C4.938,6.342 4.976,6.238 5.069,6.123C5.107,6.076 5.15,6.036 5.196,6.001C5.242,5.967 5.288,5.934 5.335,5.903C5.743,5.772 6.182,5.707 6.652,5.707C7.037,5.707 7.388,5.784 7.704,5.938C8.019,6.092 8.272,6.321 8.46,6.625C8.649,6.93 8.744,7.309 8.744,7.764C8.744,8.249 8.624,8.792 8.385,9.393C8.254,9.716 8.062,10.086 7.808,10.502C7.553,10.918 7.255,11.325 6.912,11.721C6.569,12.118 6.201,12.459 5.808,12.744C5.616,12.79 5.431,12.813 5.254,12.813C4.907,12.813 4.609,12.748 4.358,12.617C4.108,12.486 3.871,12.363 3.648,12.247C3.601,12.224 3.547,12.212 3.486,12.212C3.37,12.212 3.262,12.259 3.162,12.351C3.062,12.444 3.012,12.567 3.012,12.721C3.012,12.906 3.108,13.091 3.301,13.276C3.493,13.46 3.767,13.553 4.121,13.553C4.414,13.553 4.716,13.491 5.028,13.368C5.34,13.245 5.654,13.083 5.97,12.883C6.355,12.752 6.81,12.538 7.334,12.241C7.858,11.945 8.459,11.5 9.136,10.907C9.868,10.26 10.492,9.634 11.008,9.029C11.525,8.424 11.971,7.875 12.349,7.382C12.88,6.697 13.356,6.152 13.776,5.747C14.196,5.343 14.566,5.052 14.885,4.875C15.205,4.697 15.477,4.609 15.7,4.609C15.877,4.609 16.022,4.655 16.133,4.748C16.245,4.84 16.301,4.959 16.301,5.106C16.301,5.191 16.278,5.279 16.232,5.372L16.393,5.441C16.447,5.333 16.474,5.225 16.474,5.117C16.474,4.956 16.42,4.813 16.312,4.69C16.205,4.567 16.062,4.489 15.885,4.459C15.785,4.436 15.669,4.424 15.538,4.424C15.292,4.424 15.009,4.489 14.689,4.62C14.369,4.751 14.011,4.986 13.614,5.325C13.217,5.664 12.776,6.15 12.291,6.781C12.037,7.113 11.75,7.507 11.43,7.966C11.111,8.424 10.75,8.9 10.35,9.393C9.949,9.886 9.506,10.344 9.021,10.768C8.505,11.223 8.039,11.59 7.623,11.872C7.207,12.153 6.829,12.37 6.49,12.524C6.906,12.193 7.297,11.827 7.663,11.427C8.029,11.026 8.349,10.627 8.622,10.231C8.896,9.834 9.094,9.481 9.217,9.173C9.333,8.881 9.418,8.607 9.472,8.353C9.525,8.099 9.552,7.864 9.552,7.648C9.552,7.147 9.433,6.737 9.194,6.417C8.955,6.098 8.636,5.859 8.235,5.701C7.835,5.543 7.395,5.464 6.918,5.464C6.633,5.464 6.363,5.487 6.109,5.533L6.097,5.522C5.997,5.491 5.92,5.418 5.866,5.302C5.812,5.187 5.785,5.09 5.785,5.013C5.785,4.936 5.801,4.894 5.832,4.886ZM4.098,13.391C3.952,13.391 3.823,13.345 3.711,13.252C3.599,13.16 3.544,13.068 3.544,12.975C3.544,12.844 3.648,12.779 3.856,12.779C3.902,12.779 3.954,12.783 4.012,12.79C4.069,12.798 4.133,12.809 4.202,12.825C4.302,12.848 4.439,12.883 4.612,12.929C4.786,12.975 4.98,12.998 5.196,12.998L5.3,12.998C5.331,12.998 5.362,12.994 5.392,12.987L5.45,12.987C5.227,13.11 5.003,13.208 4.78,13.281C4.557,13.355 4.329,13.391 4.098,13.391Z"/>
        </g>
    </g>
</svg>
