<?xml version="1.0" encoding="iso-8859-1"?>
<!DOCTYPE svg PUBLIC "-//W3C//DTD SVG 1.1//EN" "http://www.w3.org/Graphics/SVG/1.1/DTD/svg11.dtd">
<svg xmlns="http://www.w3.org/2000/svg" width="18" height="18" viewBox="0 0 25 17" role="img">
    <title>Writefreely</title>
    <g id="Layer-1" transform="matrix(1,0,0,1,-153.299,-265.53)">
        <g id="text4136">
            <path fill="currentColor"
                id="path4140" d="M176.658,275.452C176.304,276.411 175.856,277.301 175.315,278.124C174.773,278.947 174.153,279.666 173.455,280.28C172.757,280.895 171.997,281.379 171.174,281.734C170.362,282.077 169.502,282.249 168.596,282.249C168.221,282.249 167.836,282.192 167.44,282.077C167.054,281.963 166.7,281.76 166.377,281.468C166.065,281.166 165.81,280.765 165.612,280.265C165.414,279.754 165.315,279.114 165.315,278.343C165.315,278.062 165.33,277.754 165.362,277.421L165.299,277.421C165.08,278.046 164.778,278.65 164.393,279.234C164.018,279.817 163.586,280.332 163.096,280.78C162.606,281.228 162.075,281.588 161.502,281.859C160.94,282.119 160.367,282.249 159.784,282.249C159.159,282.249 158.632,282.14 158.205,281.921C157.789,281.702 157.45,281.405 157.19,281.03C156.929,280.645 156.742,280.202 156.627,279.702C156.513,279.192 156.455,278.65 156.455,278.077C156.455,277.234 156.497,276.353 156.58,275.437C156.674,274.52 156.773,273.635 156.877,272.78C156.981,271.926 157.075,271.14 157.159,270.421C157.252,269.692 157.299,269.098 157.299,268.64C157.299,268.442 157.289,268.254 157.268,268.077C157.257,267.89 157.221,267.728 157.158,267.593C157.096,267.457 157.007,267.348 156.893,267.265C156.778,267.181 156.622,267.14 156.424,267.14C156.247,267.14 156.06,267.197 155.862,267.312C155.664,267.416 155.466,267.593 155.268,267.843C155.08,268.082 154.893,268.4 154.705,268.796C154.518,269.192 154.346,269.671 154.19,270.234L153.299,270.046C153.372,269.671 153.502,269.228 153.69,268.718C153.888,268.197 154.148,267.702 154.471,267.234C154.804,266.754 155.205,266.353 155.674,266.03C156.153,265.697 156.716,265.53 157.362,265.53C158.205,265.53 158.846,265.796 159.283,266.327C159.731,266.859 159.955,267.629 159.955,268.64C159.955,269.109 159.935,269.64 159.893,270.234C159.851,270.817 159.794,271.426 159.721,272.062C159.659,272.697 159.591,273.343 159.518,273.999C159.445,274.645 159.372,275.265 159.299,275.859C159.237,276.442 159.185,276.973 159.143,277.452C159.101,277.931 159.08,278.322 159.08,278.624C159.08,278.864 159.101,279.098 159.143,279.327C159.185,279.556 159.257,279.76 159.362,279.937C159.466,280.114 159.606,280.26 159.784,280.374C159.961,280.489 160.185,280.546 160.455,280.546C161.143,280.546 161.82,280.296 162.487,279.796C163.153,279.296 163.747,278.572 164.268,277.624C164.799,276.676 165.226,275.515 165.549,274.14C165.882,272.754 166.049,271.181 166.049,269.421C166.049,268.869 166.034,268.301 166.002,267.718C165.971,267.124 165.914,266.515 165.83,265.89L168.565,265.89C168.586,265.984 168.601,266.098 168.612,266.234C168.632,266.359 168.648,266.489 168.659,266.624C168.669,266.76 168.674,266.895 168.674,267.03C168.685,267.155 168.69,267.254 168.69,267.327C168.69,268.4 168.632,269.431 168.518,270.421C168.414,271.4 168.294,272.338 168.158,273.234C168.023,274.119 167.898,274.968 167.783,275.78C167.679,276.593 167.627,277.364 167.627,278.093C167.627,278.405 167.648,278.713 167.69,279.015C167.742,279.317 167.83,279.582 167.955,279.812C168.091,280.041 168.273,280.228 168.502,280.374C168.742,280.51 169.049,280.577 169.424,280.577C169.945,280.577 170.466,280.468 170.987,280.249C171.518,280.02 172.023,279.702 172.502,279.296C172.981,278.89 173.424,278.405 173.83,277.843C174.247,277.28 174.606,276.661 174.908,275.984C175.221,275.296 175.461,274.567 175.627,273.796C175.804,273.015 175.893,272.207 175.893,271.374C175.893,270.968 175.867,270.572 175.815,270.187C175.763,269.801 175.679,269.442 175.565,269.109C175.45,268.775 175.289,268.489 175.08,268.249C174.882,267.999 174.638,267.812 174.346,267.687C174.221,267.968 174.039,268.171 173.799,268.296C173.559,268.421 173.304,268.484 173.033,268.484C172.888,268.484 172.737,268.457 172.58,268.405C172.424,268.353 172.278,268.27 172.143,268.155C172.018,268.041 171.914,267.9 171.83,267.733C171.747,267.556 171.705,267.348 171.705,267.108C171.705,266.931 171.737,266.749 171.799,266.562C171.872,266.374 171.981,266.207 172.127,266.062C172.273,265.905 172.466,265.78 172.705,265.687C172.955,265.582 173.263,265.53 173.627,265.53C174.273,265.53 174.835,265.681 175.315,265.983C175.794,266.286 176.19,266.692 176.502,267.202C176.815,267.713 177.049,268.306 177.205,268.983C177.362,269.661 177.44,270.379 177.44,271.14C177.44,271.848 177.372,272.572 177.237,273.312C177.112,274.041 176.919,274.754 176.658,275.452L176.658,275.452Z" />
        </g>
    </g>
</svg>